<svg id="Layer_1" data-name="Layer 1" xmlns="http://www.w3.org/2000/svg" viewBox="0 0 409.98 92.82"><defs><style>.cls-1{fill:none;stroke:#000;stroke-miterlimit:10;}</style></defs><title>Untitled-3</title><path d="M69.05,204.6v4.58H50.21v10H67.93v4.53H50.21V234.9H69.84v4.59H45V204.6h24Z" transform="translate(-45.01 -203.59)"/><path d="M91.08,222l11.18,17.45H96.4L88.23,226.4,79.9,239.49H74L85.27,222,74.14,204.6H79.9l8.28,13,8.22-13h5.87Z" transform="translate(-45.01 -203.59)"/><path d="M108.41,204.6H122a11.21,11.21,0,0,1,4.67.92,10.64,10.64,0,0,1,3.41,2.38,10.35,10.35,0,0,1,2.1,3.27,9.68,9.68,0,0,1,.73,3.61,10.52,10.52,0,0,1-.73,3.83,9.87,9.87,0,0,1-2.1,3.3,10.15,10.15,0,0,1-3.41,2.29,11.82,11.82,0,0,1-4.67.87h-8.39v14.43h-5.2V204.6Zm5.2,16H122a5.36,5.36,0,0,0,2.15-.45,5.82,5.82,0,0,0,1.82-1.23,6.12,6.12,0,0,0,1.26-1.85,5.55,5.55,0,0,0,.47-2.29,5.35,5.35,0,0,0-1.62-4,5.64,5.64,0,0,0-4.08-1.57h-8.39v11.41Z" transform="translate(-45.01 -203.59)"/><path d="M142.81,204.6V234.9h16.89v4.59h-22V204.6h5.14Z" transform="translate(-45.01 -203.59)"/><path d="M193.17,222.1a24.34,24.34,0,0,1-1.06,7.38,17,17,0,0,1-3.08,5.79,13.7,13.7,0,0,1-5,3.77,17.72,17.72,0,0,1-13.53,0,13.69,13.69,0,0,1-5-3.77,17,17,0,0,1-3.08-5.79,26.17,26.17,0,0,1,0-14.76,17,17,0,0,1,3.08-5.79,13.7,13.7,0,0,1,5-3.78,17.74,17.74,0,0,1,13.53,0,13.7,13.7,0,0,1,5,3.78,17,17,0,0,1,3.08,5.79A24.36,24.36,0,0,1,193.17,222.1Zm-5.2,0a19.36,19.36,0,0,0-.81-5.82,12.77,12.77,0,0,0-2.26-4.33,10.17,10.17,0,0,0-3.41-2.71,9.8,9.8,0,0,0-8.42,0,10.24,10.24,0,0,0-3.38,2.71,12.71,12.71,0,0,0-2.26,4.33,19.29,19.29,0,0,0-.81,5.82,19,19,0,0,0,.81,5.79,13,13,0,0,0,2.26,4.33,10.07,10.07,0,0,0,3.38,2.74,9.8,9.8,0,0,0,8.42,0,10,10,0,0,0,3.41-2.74,13.11,13.11,0,0,0,2.26-4.33A19.07,19.07,0,0,0,188,222.1Z" transform="translate(-45.01 -203.59)"/><path d="M223.77,214.77a10.5,10.5,0,0,1-1,4.5,9.39,9.39,0,0,1-3,3.61,5.68,5.68,0,0,1,2.77,3,10.6,10.6,0,0,1,.75,3.89v5.09a7.45,7.45,0,0,0,.39,2.24,10.75,10.75,0,0,0,1.12,2.4h-5.65a5.73,5.73,0,0,1-.84-2.35,17.08,17.08,0,0,1-.17-2.12V229.7a5.29,5.29,0,0,0-.28-1.68,4,4,0,0,0-.92-1.51,4.47,4.47,0,0,0-1.68-1.06,7,7,0,0,0-2.49-.39h-9.39v14.43h-5.14V204.6h14.54a11.22,11.22,0,0,1,4.67.92,11,11,0,0,1,3.44,2.38,10.13,10.13,0,0,1,2.13,3.27A9.68,9.68,0,0,1,223.77,214.77Zm-20.35,5.82h9.39a5.5,5.5,0,0,0,2.21-.45,5.83,5.83,0,0,0,1.82-1.23,6.14,6.14,0,0,0,1.26-1.85,5.55,5.55,0,0,0,.47-2.29,5.35,5.35,0,0,0-1.62-4,5.72,5.72,0,0,0-4.14-1.57h-9.39v11.41Z" transform="translate(-45.01 -203.59)"/><path d="M235.91,204.6v34.89h-5.2V204.6h5.2Z" transform="translate(-45.01 -203.59)"/><path d="M251.34,204.6L267.22,231V204.6h5.14v34.89h-6.09l-15.82-26.67v26.67H245.3V204.6h6Z" transform="translate(-45.01 -203.59)"/><path d="M284.1,222a18.34,18.34,0,0,0,.87,5.87,13.51,13.51,0,0,0,2.35,4.36,10.26,10.26,0,0,0,3.44,2.74,9.35,9.35,0,0,0,4.14.95,7.26,7.26,0,0,0,3.49-.92,12.46,12.46,0,0,0,3.13-2.43,13.78,13.78,0,0,0,2.38-3.47,13.24,13.24,0,0,0,1.23-4h-10.4v-4.47H310.1v18.9h-3.58L306,234.12a11.69,11.69,0,0,1-2.29,2.82,13.23,13.23,0,0,1-2.82,2,13.55,13.55,0,0,1-3,1.12,12.55,12.55,0,0,1-2.88.36,15.42,15.42,0,0,1-6.65-1.4,14.77,14.77,0,0,1-5.06-3.89,17.58,17.58,0,0,1-3.22-5.84A22.86,22.86,0,0,1,278.9,222a21.74,21.74,0,0,1,1.06-6.71,18.79,18.79,0,0,1,3.1-5.9,15.91,15.91,0,0,1,5-4.19,13.77,13.77,0,0,1,6.68-1.59,16.72,16.72,0,0,1,5.68.89,14,14,0,0,1,4.36,2.49,14.16,14.16,0,0,1,3.13,3.8,23.43,23.43,0,0,1,2,4.78h-5.42a11.53,11.53,0,0,0-3.69-5.65,9.72,9.72,0,0,0-6.09-1.85,8.53,8.53,0,0,0-4.31,1.12,10.78,10.78,0,0,0-3.36,3,14.75,14.75,0,0,0-2.18,4.45A18,18,0,0,0,284.1,222Z" transform="translate(-45.01 -203.59)"/><path d="M356,214q-2,6.37-3.91,12.81t-3.91,12.69h-4.87l-8.83-34.89h5.37l6.21,25.67q1.9-6.37,3.8-12.86l3.75-12.8h4.59L365.92,230l6-25.44h5.31l-8.83,34.89h-4.92Z" transform="translate(-45.01 -203.59)"/><path d="M388.84,204.6v34.89h-5.2V204.6h5.2Z" transform="translate(-45.01 -203.59)"/><path d="M402.71,204.6L418.59,231V204.6h5.14v34.89h-6.09l-15.82-26.67v26.67h-5.14V204.6h6Z" transform="translate(-45.01 -203.59)"/><path d="M454.21,204.6v4.58H435.36v10h17.73v4.53H435.36V234.9H455v4.59H430.16V204.6h24Z" transform="translate(-45.01 -203.59)"/><path d="M168.31,270.69a10.5,10.5,0,0,1-1,4.5,9.39,9.39,0,0,1-3,3.61,5.68,5.68,0,0,1,2.77,3,10.6,10.6,0,0,1,.75,3.89v5.09a7.45,7.45,0,0,0,.39,2.24,10.75,10.75,0,0,0,1.12,2.4h-5.65a5.73,5.73,0,0,1-.84-2.35,17.08,17.08,0,0,1-.17-2.12v-5.31a5.29,5.29,0,0,0-.28-1.68,4,4,0,0,0-.92-1.51,4.47,4.47,0,0,0-1.68-1.06,7,7,0,0,0-2.49-.39H148v14.43h-5.14V260.51h14.54a11.22,11.22,0,0,1,4.67.92,11,11,0,0,1,3.44,2.38,10.13,10.13,0,0,1,2.13,3.27A9.68,9.68,0,0,1,168.31,270.69ZM148,276.51h9.39a5.5,5.5,0,0,0,2.21-.45,5.83,5.83,0,0,0,1.82-1.23,6.14,6.14,0,0,0,1.26-1.85,5.55,5.55,0,0,0,.47-2.29,5.35,5.35,0,0,0-1.62-4,5.72,5.72,0,0,0-4.14-1.57H148v11.41Z" transform="translate(-45.01 -203.59)"/><path d="M199.17,260.51v4.58H180.33v10h17.73v4.53H180.33v11.18H200v4.59H175.13V260.51h24Z" transform="translate(-45.01 -203.59)"/><path d="M210.14,277.9a18.34,18.34,0,0,0,.87,5.87,13.51,13.51,0,0,0,2.35,4.36,10.26,10.26,0,0,0,3.44,2.74,9.35,9.35,0,0,0,4.14.95,7.26,7.26,0,0,0,3.49-.92,12.46,12.46,0,0,0,3.13-2.43,13.78,13.78,0,0,0,2.38-3.47,13.24,13.24,0,0,0,1.23-4h-10.4v-4.47h15.38v18.9h-3.58L232,290a11.69,11.69,0,0,1-2.29,2.82,13.23,13.23,0,0,1-2.82,2,13.55,13.55,0,0,1-3,1.12,12.55,12.55,0,0,1-2.88.36,15.42,15.42,0,0,1-6.65-1.4,14.77,14.77,0,0,1-5.06-3.89,17.58,17.58,0,0,1-3.22-5.84,22.86,22.86,0,0,1-1.12-7.27,21.74,21.74,0,0,1,1.06-6.71,18.79,18.79,0,0,1,3.1-5.9,15.91,15.91,0,0,1,5-4.19,13.77,13.77,0,0,1,6.68-1.59,16.72,16.72,0,0,1,5.68.89,14,14,0,0,1,4.36,2.49,14.16,14.16,0,0,1,3.13,3.8,23.43,23.43,0,0,1,2,4.78h-5.42a11.53,11.53,0,0,0-3.69-5.65,9.72,9.72,0,0,0-6.09-1.85,8.53,8.53,0,0,0-4.31,1.12,10.78,10.78,0,0,0-3.36,3,14.75,14.75,0,0,0-2.18,4.45A18,18,0,0,0,210.14,277.9Z" transform="translate(-45.01 -203.59)"/><path d="M251.17,260.51v34.89H246V260.51h5.2Z" transform="translate(-45.01 -203.59)"/><path d="M290.82,278a24.34,24.34,0,0,1-1.06,7.38,17,17,0,0,1-3.08,5.79,13.7,13.7,0,0,1-5,3.77,17.72,17.72,0,0,1-13.53,0,13.69,13.69,0,0,1-5-3.77,17,17,0,0,1-3.08-5.79,26.17,26.17,0,0,1,0-14.76,17,17,0,0,1,3.08-5.79,13.7,13.7,0,0,1,5-3.78,17.74,17.74,0,0,1,13.53,0,13.7,13.7,0,0,1,5,3.78,17,17,0,0,1,3.08,5.79A24.36,24.36,0,0,1,290.82,278Zm-5.2,0a19.36,19.36,0,0,0-.81-5.82,12.77,12.77,0,0,0-2.26-4.33,10.17,10.17,0,0,0-3.41-2.71,9.8,9.8,0,0,0-8.42,0,10.24,10.24,0,0,0-3.38,2.71,12.71,12.71,0,0,0-2.26,4.33,19.29,19.29,0,0,0-.81,5.82,19,19,0,0,0,.81,5.79,13,13,0,0,0,2.26,4.33,10.07,10.07,0,0,0,3.38,2.74,9.8,9.8,0,0,0,8.42,0,10,10,0,0,0,3.41-2.74,13.11,13.11,0,0,0,2.26-4.33A19.07,19.07,0,0,0,285.62,278Z" transform="translate(-45.01 -203.59)"/><path d="M303.51,260.51L319.39,287V260.51h5.14v34.89h-6.09l-15.82-26.67v26.67h-5.14V260.51h6Z" transform="translate(-45.01 -203.59)"/><path d="M336.22,283.61a10.19,10.19,0,0,0,.75,3.33,8.29,8.29,0,0,0,1.71,2.63,7.58,7.58,0,0,0,2.52,1.71,7.93,7.93,0,0,0,3.13.61,12.73,12.73,0,0,0,2.94-.34,7.34,7.34,0,0,0,2.49-1.06,5.49,5.49,0,0,0,1.71-1.87,5.71,5.71,0,0,0,.64-2.82,4.11,4.11,0,0,0-.7-2.4,6.25,6.25,0,0,0-1.87-1.73,15,15,0,0,0-2.68-1.29q-1.51-.56-3.13-1.12-2.13-.67-4.22-1.45a16.8,16.8,0,0,1-3.77-2A9.62,9.62,0,0,1,333,273a7.85,7.85,0,0,1-1-4.19,8.76,8.76,0,0,1,.87-4,8,8,0,0,1,2.46-2.91,11.17,11.17,0,0,1,3.8-1.76,18.79,18.79,0,0,1,4.84-.59,14.08,14.08,0,0,1,5.84,1.06,10.44,10.44,0,0,1,5.81,6.43,15.86,15.86,0,0,1,.76,3.86H351a7.31,7.31,0,0,0-2.26-5.14,7.1,7.1,0,0,0-4.84-1.73,12.07,12.07,0,0,0-2.49.25,7.47,7.47,0,0,0-2.18.81,4.43,4.43,0,0,0-1.57,1.48,4,4,0,0,0-.59,2.21,4.09,4.09,0,0,0,.73,2.46,6.92,6.92,0,0,0,1.9,1.76,13.81,13.81,0,0,0,2.68,1.31q1.51,0.56,3.13,1.12,2.13,0.67,4.22,1.48a17.07,17.07,0,0,1,3.75,2,9.92,9.92,0,0,1,2.68,2.82,7.49,7.49,0,0,1,1,4.05,10.3,10.3,0,0,1-1,4.61,9.54,9.54,0,0,1-2.68,3.33,11.63,11.63,0,0,1-4.08,2,19,19,0,0,1-5.17.67,13.78,13.78,0,0,1-4.89-.89,13.26,13.26,0,0,1-4.22-2.54,13.12,13.12,0,0,1-3-4,12.43,12.43,0,0,1-1.23-5.34h5.26Z" transform="translate(-45.01 -203.59)"/><line class="cls-1" x1="331.44" y1="72.02" x2="409.71" y2="72.02"/><line class="cls-1" x1="0.06" y1="72.02" x2="78.33" y2="72.02"/></svg>